HIERARCHY
ROOT Hips
{
  OFFSET 0.0000 0.0000 0.0000
  CHANNELS 6 Xposition Yposition Zposition Zrotation Xrotation Yrotation
  JOINT LeftHip
  {
    OFFSET 3.4300 -0.0000 0.0000
    CHANNELS 3 Zrotation Xrotation Yrotation
    JOINT LeftKnee
    {
      OFFSET 0.0000 -18.4700 0.0000
      CHANNELS 3 Zrotation Xrotation Yrotation
      JOINT LeftAnkle
      {
        OFFSET -0.0000 -17.9500 0.0000
        CHANNELS 3 Zrotation Xrotation Yrotation
        End Site
        {
            OFFSET 0.0000 -3.1200 0.0000
        }
      }
    }
  }
  JOINT RightHip
  {
    OFFSET -3.4300 -0.0000 0.0000
    CHANNELS 3 Zrotation Xrotation Yrotation
    JOINT RightKnee
    {
      OFFSET -0.0000 -18.4700 0.0000
      CHANNELS 3 Zrotation Xrotation Yrotation
      JOINT RightAnkle
      {
        OFFSET 0.0000 -17.9500 -0.0000
        CHANNELS 3 Zrotation Xrotation Yrotation
        End Site
        {
            OFFSET 0.0000 -3.1200 0.0000
        }
      }
    }
  }
  JOINT Chest
  {
    OFFSET 0.0000 4.5700 -0.0000
    CHANNELS 3 Zrotation Xrotation Yrotation
    JOINT Chest2
    {
      OFFSET 0.0000 6.5700 0.0000
      CHANNELS 3 Zrotation Xrotation Yrotation
      JOINT LeftCollar
      {
        OFFSET 1.0600 4.1900 1.7600
        CHANNELS 3 Zrotation Xrotation Yrotation
        JOINT LeftShoulder
        {
          OFFSET 5.8100 0.0000 0.0000
          CHANNELS 3 Zrotation Xrotation Yrotation
          JOINT LeftElbow
          {
            OFFSET -0.0000 -12.0800 0.0000
            CHANNELS 3 Zrotation Xrotation Yrotation
            JOINT LeftWrist
            {
              OFFSET 0.0000 -9.8200 0.0000
              CHANNELS 3 Zrotation Xrotation Yrotation
              End Site
              {
                  OFFSET 0.0000 -7.3700 0.0000
              }
            }
          }
        }
      }
      JOINT RightCollar
      {
        OFFSET -1.0600 4.1900 1.7600
        CHANNELS 3 Zrotation Xrotation Yrotation
        JOINT RightShoulder
        {
          OFFSET -6.0600 -0.0000 -0.0000
          CHANNELS 3 Zrotation Xrotation Yrotation
          JOINT RightElbow
          {
            OFFSET 0.0000 -11.0800 0.0000
            CHANNELS 3 Zrotation Xrotation Yrotation
            JOINT RightWrist
            {
              OFFSET 0.0000 -9.8200 0.0000
              CHANNELS 3 Zrotation Xrotation Yrotation
              End Site
              {
                  OFFSET 0.0000 -7.1400 0.0000
              }
            }
          }
        }
      }
    }
    JOINT Neck
    {
      OFFSET 0.0000 10.6200 0.0000
      CHANNELS 3 Zrotation Xrotation Yrotation
      JOINT Head
      {
        OFFSET 0.0000 5.1900 0.0000
        CHANNELS 3 Zrotation Xrotation Yrotation
        End Site
        {
            OFFSET 0.0000 4.1400 0.0000
        }
      }
    }
  }
}
MOTION
Frames:	30
Frame Time:	0.033333
44.0691 41.3614 1.7267 -1.86 -3.94 -25.00 7.49 -1.48 -8.35 -3.25 16.41 3.26 -7.44 -9.77 -0.67 -13.24 3.39 -14.54 0.33 3.73 -24.90 7.67 7.07 -0.54 1.65 14.28 -4.79 0.00 0.00 0.00 1.15 0.01 3.38 9.12 -4.77 -50.98 26.95 -22.47 31.15 1.00 5.53 -0.03 3.22 -0.00 -3.51 -6.06 -14.77 21.02 -13.10 -16.34 13.79 -8.69 4.71 0.23 -7.29 8.32 2.24 8.72 -12.41 -1.47 
44.0691 41.3614 1.7267 -1.86 -3.94 -25.00 7.49 -1.48 -8.35 -3.25 16.41 3.26 -7.44 -9.77 -0.67 -13.24 3.39 -14.54 0.33 3.73 -24.90 7.67 7.07 -0.54 1.65 14.28 -4.79 0.00 0.00 0.00 1.15 0.01 3.38 9.12 -4.77 -50.98 26.95 -22.47 31.15 1.00 5.53 -0.03 3.22 -0.00 -3.51 -6.06 -14.77 21.02 -13.10 -16.34 13.79 -8.69 4.71 0.23 -7.29 8.32 2.24 8.72 -12.41 -1.47 
44.1337 41.3707 1.7544 -1.79 -3.88 -25.09 7.29 -1.61 -8.70 -3.24 16.54 3.79 -7.28 -9.83 -0.67 -13.33 3.41 -14.20 0.31 3.43 -25.18 7.70 7.28 -0.54 1.61 14.20 -4.81 0.00 0.00 0.00 1.10 0.01 3.38 8.98 -4.72 -51.18 26.85 -22.12 30.81 0.91 5.60 -0.03 3.52 -0.00 -3.51 -6.23 -14.84 21.18 -12.92 -16.18 14.36 -8.45 4.45 0.20 -7.04 8.26 2.19 8.57 -12.59 -1.39 
44.1956 41.3808 1.7680 -1.63 -3.70 -25.27 7.10 -2.05 -8.65 -3.20 16.94 4.03 -7.11 -10.00 -0.67 -13.47 3.17 -13.92 0.30 3.26 -25.32 7.73 7.42 -0.54 1.53 14.06 -4.82 0.00 0.00 0.00 1.37 0.01 3.34 8.58 -4.51 -51.36 26.42 -21.28 30.52 0.97 5.31 -0.03 3.71 -0.00 -3.51 -5.82 -14.76 21.31 -12.89 -16.24 15.70 -7.81 4.21 0.17 -7.23 7.55 2.31 8.82 -12.36 -1.34 
44.2687 41.3703 1.7454 -1.53 -3.50 -25.35 6.94 -2.43 -8.63 -3.12 17.19 4.15 -7.02 -10.06 -0.66 -13.55 2.86 -13.96 0.29 3.27 -25.25 7.75 7.50 -0.54 1.51 13.96 -4.83 0.00 0.00 0.00 1.37 0.01 3.34 8.45 -4.64 -51.87 25.88 -19.96 30.53 0.99 4.92 -0.03 3.49 -0.00 -3.52 -5.01 -14.56 21.22 -13.24 -16.21 16.50 -7.37 4.01 0.15 -7.34 7.52 2.38 9.01 -12.70 -1.31 
44.3145 41.3600 1.7482 -1.46 -3.37 -25.41 6.81 -2.59 -8.57 -3.03 17.24 4.20 -6.97 -10.08 -0.66 -13.55 2.74 -14.31 0.18 3.07 -24.85 7.77 7.63 -0.56 1.45 13.94 -4.72 0.00 0.00 0.00 1.47 0.01 3.33 8.30 -4.91 -52.26 25.58 -19.14 30.60 0.96 4.99 -0.03 3.24 -0.00 -3.52 -4.58 -14.46 21.33 -12.96 -16.04 16.70 -7.33 3.88 0.14 -7.25 7.42 2.36 8.97 -12.88 -1.28 
44.3331 41.3667 1.7538 -1.38 -3.30 -25.45 6.73 -2.68 -8.53 -3.00 17.22 4.22 -6.92 -10.07 -0.65 -13.56 2.75 -14.71 0.12 2.82 -24.43 7.75 7.74 -0.57 1.37 14.01 -4.66 0.00 0.00 0.00 1.59 0.01 3.31 8.37 -4.99 -52.39 25.44 -18.94 30.74 1.00 5.21 -0.03 3.26 -0.00 -3.53 -4.39 -14.31 21.56 -12.64 -15.94 16.80 -7.17 3.62 0.12 -7.36 7.06 2.38 9.12 -12.79 -1.29 
44.3506 41.3703 1.7490 -1.36 -3.26 -25.44 6.69 -2.74 -8.57 -2.98 17.20 4.27 -6.90 -10.05 -0.65 -13.61 2.71 -14.76 0.18 2.78 -24.41 7.72 7.75 -0.55 1.31 14.12 -4.64 0.00 0.00 0.00 1.48 0.01 3.33 8.50 -5.11 -52.50 25.44 -18.67 30.77 0.90 5.45 -0.03 3.34 -0.00 -3.54 -4.38 -14.20 21.78 -12.49 -15.76 17.07 -6.91 3.38 0.10 -7.11 7.02 2.28 8.96 -12.89 -1.28 
44.3622 41.3735 1.7401 -1.34 -3.23 -25.43 6.64 -2.78 -8.62 -2.90 17.18 4.31 -6.91 -10.04 -0.65 -13.62 2.67 -14.74 0.20 2.78 -24.45 7.71 7.73 -0.55 1.22 14.25 -4.55 0.00 0.00 0.00 1.87 0.02 3.28 8.17 -5.28 -52.60 25.26 -18.28 30.77 0.86 5.57 -0.03 3.18 -0.01 -3.55 -4.11 -13.91 21.91 -12.64 -15.76 17.46 -6.56 3.16 0.08 -6.74 6.85 2.13 8.75 -12.85 -1.26 
44.3641 41.3821 1.7358 -1.32 -3.22 -25.42 6.62 -2.79 -8.64 -2.85 17.15 4.33 -6.91 -10.03 -0.64 -13.62 2.67 -14.71 0.21 2.76 -24.49 7.71 7.72 -0.55 1.16 14.40 -4.52 0.00 0.00 0.00 2.20 0.02 3.24 7.95 -5.33 -52.67 25.00 -17.92 30.87 0.91 5.42 -0.03 3.07 -0.01 -3.57 -3.87 -13.55 22.02 -12.85 -15.87 17.83 -6.42 3.08 0.08 -6.71 6.48 2.09 8.79 -12.65 -1.30 
44.3703 41.3858 1.7272 -1.32 -3.20 -25.40 6.61 -2.82 -8.66 -2.82 17.14 4.35 -6.90 -10.04 -0.65 -13.62 2.71 -14.58 0.26 2.62 -24.66 7.67 7.77 -0.53 1.10 14.57 -4.44 0.00 0.00 0.00 2.27 0.02 3.23 7.90 -5.42 -52.77 24.88 -17.61 30.87 0.87 5.30 -0.03 3.24 -0.01 -3.59 -4.03 -13.27 22.04 -13.01 -15.96 17.92 -6.38 3.07 0.07 -6.68 6.28 2.03 8.81 -12.62 -1.35 
44.3736 41.3907 1.7084 -1.30 -3.16 -25.37 6.62 -2.81 -8.68 -2.78 16.99 4.34 -6.92 -9.96 -0.64 -13.59 2.73 -14.38 0.31 2.47 -24.92 7.60 7.83 -0.52 1.09 14.74 -4.39 0.00 0.00 0.00 1.97 0.02 3.27 8.27 -5.56 -52.88 24.90 -17.62 30.87 0.82 5.39 -0.03 3.32 -0.01 -3.62 -4.22 -12.89 21.97 -13.19 -15.93 17.77 -6.41 3.02 0.07 -6.76 5.92 1.98 8.90 -12.45 -1.42 
44.3767 41.3964 1.6703 -1.28 -3.08 -25.29 6.67 -2.95 -8.72 -2.80 16.96 4.32 -6.91 -9.92 -0.64 -13.56 2.67 -14.31 0.37 2.37 -25.11 7.52 7.86 -0.50 1.10 14.89 -4.42 0.00 0.00 0.00 1.64 0.01 3.32 8.75 -5.64 -52.92 24.99 -17.70 30.89 0.77 5.42 -0.02 3.08 -0.01 -3.64 -4.26 -12.48 21.69 -13.53 -15.82 17.41 -6.35 3.04 0.07 -7.13 5.33 2.02 9.28 -12.11 -1.55 
44.3788 41.4020 1.6098 -1.23 -2.95 -25.17 6.73 -3.17 -8.80 -2.80 16.90 4.31 -6.93 -9.83 -0.63 -13.49 2.47 -14.37 0.36 2.41 -25.20 7.47 7.86 -0.50 1.12 15.01 -4.43 0.00 0.00 0.00 1.33 0.01 3.37 9.20 -5.84 -52.98 25.09 -17.92 30.85 0.72 5.59 -0.02 2.43 -0.01 -3.62 -4.09 -12.33 21.17 -13.56 -15.95 17.41 -6.29 3.02 0.07 -7.26 5.01 1.98 9.43 -12.03 -1.65 
44.3350 41.4109 1.5547 -1.14 -2.80 -25.11 6.86 -3.17 -8.77 -2.84 16.44 4.27 -6.98 -9.61 -0.62 -13.37 2.22 -14.44 0.24 2.51 -25.20 7.45 7.78 -0.51 1.07 15.10 -4.36 0.00 0.00 0.00 1.35 0.01 3.37 9.38 -6.07 -53.00 25.14 -18.22 30.80 0.71 5.75 -0.02 2.03 -0.01 -3.61 -4.37 -12.28 20.69 -13.12 -15.96 17.38 -6.48 2.92 0.07 -7.17 4.79 1.87 9.37 -12.06 -1.70 
44.2570 41.4120 1.4942 -1.10 -2.61 -25.11 7.17 -3.09 -8.70 -3.00 15.87 4.26 -7.04 -9.38 -0.62 -13.19 1.87 -14.50 0.21 2.77 -25.18 7.40 7.57 -0.51 1.14 15.18 -4.30 0.00 0.00 0.00 0.82 0.00 3.44 10.18 -6.24 -53.05 25.28 -18.69 30.84 0.66 5.90 -0.02 2.28 -0.01 -3.63 -5.26 -12.24 20.08 -12.97 -16.07 17.35 -6.43 2.93 0.07 -7.64 4.47 1.93 9.78 -12.06 -1.84 
44.2070 41.4052 1.4262 -1.08 -2.37 -25.07 7.39 -3.19 -8.69 -3.04 15.57 4.26 -7.13 -9.28 -0.61 -13.18 1.29 -14.59 0.43 3.51 -25.17 7.33 7.13 -0.48 1.32 15.22 -4.24 0.00 0.00 0.00 -0.15 -0.01 3.57 11.35 -6.61 -53.34 25.32 -19.13 30.90 0.66 6.07 -0.03 2.45 -0.01 -3.64 -6.18 -12.20 19.13 -13.02 -16.39 17.44 -6.07 2.90 0.06 -8.19 4.78 2.00 10.15 -12.63 -1.98 
44.1001 41.4061 1.3874 -1.05 -2.15 -25.16 7.66 -3.12 -8.47 -2.98 15.11 4.15 -7.31 -9.17 -0.61 -13.24 0.59 -14.76 0.76 4.60 -24.95 7.28 6.39 -0.43 1.44 15.25 -4.19 0.00 0.00 0.00 -0.28 -0.01 3.58 11.71 -6.99 -53.54 25.34 -19.63 30.85 0.75 6.06 -0.03 2.69 -0.02 -3.68 -7.46 -11.98 17.69 -12.68 -17.37 18.14 -5.59 2.99 0.06 -8.26 4.88 1.97 10.08 -13.01 -2.00 
43.9861 41.4012 1.3097 -1.06 -1.91 -25.18 8.02 -3.37 -8.36 -3.01 15.15 4.09 -7.52 -9.24 -0.63 -13.22 -0.30 -15.50 0.98 6.08 -24.19 7.24 5.48 -0.40 1.70 15.32 -4.38 0.00 0.00 0.00 -0.33 -0.01 3.57 11.87 -7.74 -53.71 25.75 -20.33 30.59 0.69 6.34 -0.03 2.46 -0.02 -3.68 -8.42 -11.78 15.97 -12.52 -18.54 19.32 -4.88 2.80 0.05 -8.81 5.02 2.09 10.42 -13.54 -2.07 
43.7962 41.3782 1.2445 -1.09 -1.62 -25.40 8.49 -3.57 -8.07 -2.98 15.28 4.00 -7.89 -9.46 -0.67 -13.26 -1.45 -16.69 1.33 8.12 -22.86 7.03 4.10 -0.32 1.96 15.33 -4.41 0.00 0.00 0.00 -0.59 -0.01 3.58 12.01 -8.93 -54.06 26.14 -20.69 30.28 0.57 6.47 -0.02 2.04 -0.02 -3.67 -9.71 -11.61 14.26 -12.23 -19.80 20.33 -4.62 2.43 0.03 -9.30 5.21 2.13 10.71 -14.20 -2.18 
43.4682 41.3491 1.1813 -0.93 -1.25 -25.87 9.17 -3.80 -7.57 -3.21 15.37 4.00 -8.30 -9.75 -0.74 -13.72 -3.27 -18.68 2.05 11.53 -20.67 6.37 1.78 -0.15 2.00 15.38 -4.45 0.00 0.00 0.00 -0.42 -0.01 3.57 12.58 -9.20 -53.30 26.67 -22.47 30.22 0.65 6.72 -0.03 1.56 -0.01 -3.65 -11.33 -11.46 12.48 -12.10 -21.89 20.76 -4.35 2.41 0.03 -10.18 3.62 2.01 11.39 -13.57 -2.61 
43.0654 41.3210 1.0494 -0.66 -1.08 -26.18 9.76 -3.91 -7.70 -3.46 15.31 4.40 -8.90 -9.92 -0.78 -13.98 -4.65 -19.61 2.88 14.41 -20.19 5.14 -0.48 0.02 1.85 15.53 -4.51 0.00 0.00 0.00 -0.22 -0.00 3.55 13.56 -9.52 -52.68 26.96 -23.85 30.65 0.69 6.83 -0.03 0.58 -0.01 -3.58 -12.81 -11.41 10.24 -12.17 -24.11 21.20 -4.23 2.30 0.02 -9.63 3.20 0.63 10.73 -14.50 -3.63 
42.5292 41.2383 0.9921 -0.66 -1.12 -26.52 10.28 -3.39 -7.99 -3.01 15.15 4.78 -9.97 -10.21 -0.83 -13.96 -5.01 -20.01 3.95 16.50 -21.72 3.79 -2.80 0.16 1.77 15.83 -4.09 0.00 0.00 0.00 -0.90 -0.01 3.57 14.87 -10.93 -53.35 26.68 -23.24 31.35 0.59 6.49 -0.02 -0.18 -0.00 -3.52 -15.18 -11.46 7.51 -12.10 -26.42 21.42 -4.95 2.20 0.02 -8.39 4.87 -1.64 9.49 -16.99 -5.33 
41.8470 41.2197 0.8971 -1.03 -1.31 -26.90 10.97 -2.21 -8.09 -1.80 14.39 4.72 -11.51 -10.15 -0.80 -13.73 -5.47 -20.94 5.10 19.29 -23.08 3.18 -5.35 0.25 1.94 16.42 -4.00 0.00 0.00 0.00 -2.27 -0.01 3.62 16.83 -11.57 -52.56 27.43 -23.96 31.60 1.08 7.28 -0.05 -1.35 0.01 -3.43 -17.49 -11.96 4.72 -11.84 -29.06 21.22 -6.35 2.44 0.04 -11.09 3.11 -2.41 11.41 -15.74 -7.14 
41.1466 41.1889 0.7079 -1.68 -1.57 -27.09 11.99 -1.39 -8.42 -1.08 13.93 4.58 -12.45 -9.62 -0.69 -12.41 -4.65 -21.96 5.01 19.40 -23.19 2.96 -6.50 0.25 2.09 17.07 -3.98 0.00 0.00 0.00 -0.53 -0.00 3.54 15.28 -11.75 -51.35 27.33 -22.70 31.28 2.38 7.40 -0.12 -3.40 0.01 -3.35 -19.72 -13.58 1.96 -10.96 -30.80 19.99 -8.68 2.56 0.06 -12.08 3.46 -3.49 12.17 -15.96 -8.66 
40.3033 41.2909 0.4714 -2.63 -1.82 -27.67 12.90 -1.79 -8.72 -1.73 14.44 4.27 -8.99 -4.99 -0.25 -10.01 -3.17 -21.97 4.42 17.70 -23.21 2.77 -6.87 0.24 2.38 18.05 -3.55 0.00 0.00 0.00 0.52 0.00 3.49 14.73 -11.13 -49.16 27.28 -21.90 30.96 2.99 7.38 -0.15 -4.30 0.00 -3.48 -23.42 -16.29 -0.89 -10.20 -32.44 18.13 -11.80 2.90 0.12 -11.13 5.51 -4.93 11.44 -17.74 -9.80 
39.2837 41.3653 0.1311 -3.95 -1.92 -28.96 14.54 -2.38 -8.70 -1.53 17.21 4.30 -7.29 -2.06 -0.01 -6.74 -2.12 -20.61 3.65 16.75 -23.51 2.69 -7.48 0.23 2.86 19.30 -2.87 0.00 0.00 0.00 0.43 0.00 3.50 15.85 -9.48 -45.60 27.76 -22.04 30.92 3.83 7.43 -0.19 -4.95 -0.01 -3.84 -26.80 -20.60 -3.56 -9.93 -33.69 16.45 -15.79 3.03 0.18 -12.89 5.21 -5.40 12.97 -17.59 -11.00 
38.2420 41.3904 -0.2883 -4.94 -1.40 -30.71 16.37 -4.04 -7.27 -1.92 20.50 4.44 -6.04 1.42 0.13 -3.67 -1.84 -17.73 3.74 16.19 -25.05 2.94 -8.28 0.27 2.87 19.88 -1.90 0.00 0.00 0.00 -2.20 -0.04 3.92 20.19 -6.14 -40.40 29.57 -25.31 30.66 4.16 8.93 -0.26 -4.91 -0.03 -4.33 -30.49 -26.21 -6.03 -9.58 -34.18 15.25 -20.83 3.16 0.26 -14.23 5.84 -5.74 14.48 -17.97 -11.97 
37.2414 41.4575 -0.6923 -4.92 -0.59 -32.52 17.28 -6.84 -6.61 -4.37 21.66 8.04 -2.08 9.10 -0.07 -1.25 -1.79 -13.70 3.91 14.50 -27.57 3.30 -8.88 0.34 1.95 19.80 -0.40 0.00 0.00 0.00 -2.55 -0.07 4.20 22.09 -2.51 -35.86 30.36 -28.02 30.39 4.48 9.99 -0.32 -4.30 -0.06 -4.73 -35.13 -32.16 -9.78 -9.25 -34.64 14.41 -25.39 3.30 0.35 -13.98 6.20 -6.53 14.59 -17.95 -12.75 
36.3434 41.5263 -1.1290 -4.61 0.54 -34.22 17.21 -12.49 -7.85 -3.43 30.80 13.71 2.66 12.62 -0.55 0.89 -2.51 -10.08 4.19 13.71 -29.60 2.89 -9.58 0.38 1.20 19.50 1.56 0.00 0.00 0.00 -1.98 -0.07 4.21 22.38 0.69 -32.97 29.64 -27.85 30.58 5.26 9.67 -0.37 -2.95 -0.07 -4.71 -41.64 -38.01 -15.53 -9.07 -35.33 13.28 -29.10 3.38 0.43 -15.31 5.83 -7.04 15.65 -17.81 -13.78 
